PathFileType	4	(X/Y/Z)	c:/Users/goper/Files/vsCode/490R/osim_files/C04/C04_Static.trc
DataRate	CameraRate	NumFrames	NumMarkers	Units                	OrigDataRate	OrigDataStartFrame	OrigNumFrames
250.00	250.00	8	36	mm	250.0	1	1445
                Frame#	Time	LPSIS			LASIS			LTH1			LTH2			LTH3			LTH4			LLFE			LMFE			LSH1			LSH2			LSH3			LSH4			LLMAL			LMMAL			LCAL			LMTP5			LTOE			LMTP1			RPSIS			RASIS			RTH1			RTH2			RTH3			RTH4			RLFE			RMFE			RSH1			RSH2			RSH3			RSH4			RLMAL			RMMAL			RCAL			RMTP1			RTOE			RMTP5		
		X1	Y1	Z1	X2	Y2	Z2	X3	Y3	Z3	X4	Y4	Z4	X5	Y5	Z5	X6	Y6	Z6	X7	Y7	Z7	X8	Y8	Z8	X9	Y9	Z9	X10	Y10	Z10	X11	Y11	Z11	X12	Y12	Z12	X13	Y13	Z13	X14	Y14	Z14	X15	Y15	Z15	X16	Y16	Z16	X17	Y17	Z17	X18	Y18	Z18	X19	Y19	Z19	X20	Y20	Z20	X21	Y21	Z21	X22	Y22	Z22	X23	Y23	Z23	X24	Y24	Z24	X25	Y25	Z25	X26	Y26	Z26	X27	Y27	Z27	X28	Y28	Z28	X29	Y29	Z29	X30	Y30	Z30	X31	Y31	Z31	X32	Y32	Z32	X33	Y33	Z33	X34	Y34	Z34	X35	Y35	Z35	X36	Y36	Z36

1	0.00000	-347.61658	977.77075	420.38019	-183.85289	962.67957	340.68680	-320.21841	730.70880	278.25873	-316.51447	668.86926	282.48325	-255.43858	739.96332	264.54730	-242.02275	678.49835	267.85422	-296.30615	463.95294	280.67691	-280.04788	437.31827	393.59213	-359.79581	364.52194	269.09146	-368.72208	317.43433	267.98764	-308.46976	361.67456	258.74866	-309.26187	314.46094	255.82895	-347.61850	77.03476	252.41071	-324.06284	91.05824	343.68527	-404.73013	48.39342	312.88370	-220.35329	21.45856	210.48807	-186.31953	47.44067	258.13492	-205.98395	21.44140	317.27783	-345.55914	980.39325	494.92648	-175.09256	957.22076	553.46130	-302.80020	747.89447	637.14319	-305.15948	685.42352	633.39685	-238.35077	750.49750	638.93439	-228.67770	688.82898	636.08051	-278.98676	465.80524	621.26080	-281.73691	448.57550	509.34610	-358.38657	340.03958	646.98523	-352.65527	294.81787	648.77924	-296.85107	340.29956	649.37042	-300.20139	293.41306	653.06842	-336.23724	80.43587	648.36157	-313.85779	87.75773	559.13098	-391.95407	48.39930	594.72046	-190.05801	31.08611	586.28711	-166.40598	46.84256	635.63245	-209.12277	17.68416	690.82458
2	0.00400	-347.65051	977.77844	420.32233	-183.95972	962.64734	340.68347	-320.35818	730.66443	278.26807	-316.53998	668.87811	282.40466	-255.54558	739.93494	264.52426	-242.13374	678.46191	267.84045	-296.37363	463.94000	280.65854	-280.14392	437.30988	393.57260	-359.78751	364.53720	269.01233	-368.78613	317.41391	267.97440	-308.53827	361.68167	258.72787	-309.28879	314.47437	255.81531	-347.62582	77.01667	252.39018	-324.07214	91.08635	343.68127	-404.69434	48.37146	312.85980	-220.33325	21.45216	210.47635	-186.34601	47.45644	258.13687	-206.02299	21.44176	317.28479	-345.66061	980.42761	494.87305	-175.20728	957.24585	553.45184	-302.97897	747.91510	637.07220	-305.29013	685.44684	633.33606	-238.44807	750.52582	638.92322	-228.83521	688.85559	636.07648	-279.08578	465.84143	621.22766	-281.80899	448.58713	509.32303	-358.50571	340.07550	646.94220	-352.72101	294.86798	648.72870	-296.91330	340.35590	649.35669	-300.26666	293.47235	653.03717	-336.25449	80.47285	648.35223	-313.85248	87.76276	559.12689	-391.97302	48.41472	594.66858	-190.08064	31.08209	586.26855	-166.42482	46.84866	635.62769	-209.12924	17.71952	690.80804
3	0.00800	-347.80383	977.85553	420.20703	-184.03384	962.66614	340.67166	-320.41336	730.67065	278.25000	-316.61853	668.88269	282.37595	-255.63377	739.94147	264.53275	-242.17258	678.51660	267.85519	-296.43839	463.96149	280.64188	-280.21942	437.32462	393.58322	-359.85593	364.55515	269.01770	-368.83273	317.40964	267.94415	-308.59338	361.67557	258.73929	-309.34579	314.48431	255.81529	-347.59949	77.04907	252.36574	-324.06110	91.10427	343.67569	-404.68033	48.36143	312.87875	-220.34627	21.45540	210.47993	-186.34587	47.46796	258.14828	-205.98260	21.50602	317.26959	-345.75751	980.46973	494.85385	-175.31384	957.26721	553.44775	-303.06903	747.95081	637.05316	-306.51181	684.78540	632.95612	-238.55586	750.58875	638.88519	-228.96501	688.87469	636.07397	-279.17111	465.86267	621.22345	-281.87448	448.60831	509.30762	-358.57019	340.08310	646.90845	-352.78561	294.90152	648.69543	-297.01447	340.37433	649.33386	-299.78912	293.45251	653.21460	-336.21918	80.49847	648.36279	-313.87225	87.76443	559.12506	-391.95224	48.46006	594.64001	-190.07510	31.10180	586.26355	-166.42096	46.87210	635.62067	-209.12064	17.75395	690.80090
4	0.01200	-347.89185	977.86676	420.20120	-184.09938	962.68872	340.66098	-320.46826	730.70135	278.22745	-316.73560	668.81750	282.53894	-255.69946	739.96747	264.54065	-242.25317	678.50763	267.84399	-296.51511	463.97549	280.64276	-280.30502	437.33936	393.56827	-359.92355	364.51837	269.05505	-368.90173	317.39764	267.95508	-308.65237	361.69449	258.73660	-309.41113	314.48239	255.82405	-347.66641	77.02419	252.44569	-324.03983	91.13404	343.67902	-404.69861	48.36901	312.86426	-220.32146	21.47532	210.49460	-186.31776	47.48072	258.15192	-205.96062	21.51690	317.26776	-345.90372	980.44659	494.80130	-175.36870	957.28851	553.44934	-303.14798	747.94830	637.00299	-306.61850	684.76276	632.91144	-238.63608	750.58307	638.85138	-229.06271	688.89807	636.04755	-279.22266	465.87842	621.19061	-281.93478	448.60541	509.29196	-358.65109	340.05786	646.84454	-352.82416	294.87946	648.63641	-297.00021	340.40619	649.31592	-299.83768	293.49268	653.20728	-336.19107	80.54208	648.35266	-313.85269	87.76501	559.13135	-391.92978	48.46746	594.61328	-190.06371	31.12792	586.24725	-166.40509	46.88668	635.62567	-209.08717	17.77463	690.80115
5	0.01600	-347.97238	977.84308	420.12991	-184.17702	962.69141	340.65286	-320.49615	730.73370	278.17114	-316.83728	668.94159	282.38889	-255.80603	739.96606	264.52307	-242.34209	678.55524	267.83908	-296.57852	463.99017	280.62784	-280.41592	437.33551	393.55170	-360.05127	364.49515	269.10034	-368.94220	317.39590	267.95639	-308.70953	361.71368	258.73145	-309.45059	314.50912	255.80983	-347.64783	77.07518	252.43044	-324.05161	91.11723	343.67624	-404.71512	48.35507	312.87250	-220.33971	21.49388	210.50194	-186.30466	47.48595	258.14996	-205.91653	21.53690	317.28244	-345.99329	980.46863	494.77411	-175.42749	957.31421	553.45575	-303.25473	747.90063	636.96002	-306.71350	684.71588	632.88757	-238.77434	750.57611	638.79681	-229.15866	688.89813	636.04950	-279.28479	465.86188	621.16406	-282.01932	448.60760	509.27567	-358.65979	340.02069	646.82935	-352.82944	294.80191	648.64478	-297.02603	340.43420	649.28992	-300.41931	293.49921	652.96503	-336.19781	80.50379	648.35669	-313.86880	87.77327	559.12677	-391.92999	48.47343	594.65826	-190.05702	31.14193	586.26984	-166.40109	46.88472	635.63635	-209.04794	17.76311	690.80353
6	0.02000	-348.09778	977.85559	420.13190	-184.27731	962.70508	340.64850	-320.60571	730.73535	278.20279	-317.01599	668.81488	282.64127	-255.85139	740.00781	264.54773	-242.41141	678.55676	267.83408	-296.65906	464.00336	280.62625	-280.54355	437.31570	393.56155	-360.11768	364.49680	269.10651	-369.03030	317.38666	268.01523	-308.78616	361.72186	258.73044	-309.53110	314.53406	255.83380	-347.68506	77.05074	252.48218	-324.06326	91.12573	343.67920	-404.71970	48.36849	312.92596	-220.35892	21.48197	210.52518	-186.31998	47.48705	258.17041	-205.94711	21.51891	317.31714	-346.10867	980.48712	494.75464	-175.53220	957.31000	553.45734	-303.33945	747.89148	636.96796	-306.82825	684.70251	632.86646	-238.92166	750.56012	638.80963	-229.29585	688.89490	636.04840	-279.40710	465.85468	621.15344	-282.09772	448.60510	509.26984	-358.72757	339.99509	646.83911	-352.87509	294.79117	648.65283	-297.09323	340.42017	649.30377	-299.89575	293.47800	653.20996	-336.19611	80.50722	648.37164	-313.87347	87.79923	559.15771	-391.94897	48.48485	594.69617	-190.05135	31.14946	586.29126	-166.41055	46.90567	635.67261	-209.07890	17.75110	690.82373
7	0.02400	-348.19330	977.87488	420.13043	-184.32722	962.75891	340.63242	-320.64151	730.77509	278.18896	-317.07391	668.82141	282.61630	-255.96622	740.01581	264.53424	-242.50319	678.59955	267.82202	-296.70767	464.04938	280.61908	-280.58984	437.35034	393.54239	-360.16235	364.50671	269.13779	-369.11377	317.40491	268.04300	-308.85226	361.74484	258.73413	-309.57263	314.56833	255.82272	-347.72156	77.09225	252.49001	-324.07156	91.13674	343.68802	-404.72034	48.38984	312.92819	-220.33832	21.52590	210.52844	-186.34035	47.52119	258.17120	-205.97447	21.53586	317.32690	-346.19241	980.48303	494.74240	-175.67273	957.32257	553.44727	-303.44974	747.91888	636.94812	-306.98459	684.73621	632.83496	-239.11507	750.57843	638.74670	-229.44075	688.91797	636.04327	-279.49069	465.88284	621.14105	-282.13168	448.63959	509.24475	-358.81665	340.01694	646.82581	-352.98279	294.79889	648.61426	-297.15207	340.48184	649.26532	-300.56918	293.48163	652.91595	-336.23050	80.51434	648.35333	-313.88028	87.83562	559.14618	-391.97815	48.52790	594.73547	-190.05623	31.19187	586.29126	-166.42928	46.91686	635.67871	-209.08261	17.78095	690.81909
8	0.02800	-348.32275	977.87195	420.09015	-184.38295	962.76923	340.61731	-320.69629	730.80554	278.17422	-316.93558	669.03925	282.29269	-256.05804	740.02649	264.52460	-242.56006	678.62738	267.82449	-296.76590	464.05203	280.62378	-280.65860	437.37317	393.53745	-360.23611	364.46835	269.15469	-369.14536	317.41486	268.06671	-308.89914	361.78241	258.72305	-309.63736	314.56555	255.82674	-347.73804	77.07932	252.50645	-324.07404	91.14114	343.68842	-404.72464	48.40615	312.95639	-220.36766	21.54143	210.53253	-186.35283	47.52715	258.17743	-205.99739	21.52693	317.30496	-346.35962	980.50470	494.68784	-175.75356	957.33612	553.44159	-303.58459	747.95154	636.92468	-306.04926	685.43091	633.09778	-239.27068	750.60626	638.74847	-229.58244	688.93689	636.02783	-279.59595	465.90750	621.11279	-282.18610	448.63168	509.21643	-358.89368	340.04889	646.81604	-353.09735	294.81418	648.56531	-297.29013	340.45819	649.28052	-300.59171	293.53043	652.92151	-336.23730	80.52951	648.36273	-313.86594	87.85205	559.15881	-391.97415	48.55352	594.72015	-190.06248	31.23132	586.31049	-166.44257	46.93698	635.67334	-209.12767	17.80206	690.81323
